<svg width="1378.144" height="1225.688" viewBox="0 0 364.634 324.297" xmlns:xlink="http://www.w3.org/1999/xlink" xmlns="http://www.w3.org/2000/svg"><defs><radialGradient xlink:href="#prefix__a" id="prefix__d" cx="263.012" cy="100.148" fx="263.012" fy="100.148" r="3.228" gradientUnits="userSpaceOnUse" gradientTransform="translate(381.095 -31.826)"/><radialGradient xlink:href="#prefix__a" id="prefix__c" gradientUnits="userSpaceOnUse" gradientTransform="translate(256.121 -6.23)" cx="263.012" cy="100.148" fx="263.012" fy="100.148" r="3.228"/><radialGradient xlink:href="#prefix__a" id="prefix__e" gradientUnits="userSpaceOnUse" gradientTransform="translate(256.121 -6.23)" cx="263.012" cy="100.148" fx="263.012" fy="100.148" r="3.228"/><linearGradient id="prefix__a"><stop offset="0" stop-color="#bfa9a2"/><stop offset="1" stop-color="#25302b"/></linearGradient><filter id="prefix__b" x="-.049" y="-.058" width="1.098" height="1.117" color-interpolation-filters="sRGB"><feGaussianBlur stdDeviation="5 5" result="blur"/></filter></defs><g transform="translate(-355.437 11.578)"><rect width="244.3" height="205.529" x="379.814" y="14.681" ry="2.469" fill-opacity=".325" filter="url(#prefix__b)"/><rect width="244.3" height="205.529" x="414.445" y="50.441" ry="2.469" fill-opacity=".325" filter="url(#prefix__b)"/><rect width="244.3" height="205.529" x="451.711" y="82.814" ry="2.469" fill-opacity=".325" filter="url(#prefix__b)"/><g transform="translate(88.084 -61.734)"><rect width="244.3" height="203.646" x="291.354" y="76.791" ry="2.447" fill="#fbfcfc"/><rect width="244.3" height="21.456" x="291.354" y="74.156" ry="2.374" fill="#dde1e5"/><rect width="243.868" height="11.346" x="291.68" y="88.151" ry="0" fill="#fbfcfc" stroke="#dde1e5" stroke-width=".33" stroke-linecap="square" stroke-linejoin="round" stroke-miterlimit="0"/><rect width="35.667" height="14.373" x="314.084" y="79.32" ry="3.67" fill="#fbfcfc"/><rect width="182.567" height="8.658" x="327.867" y="89.589" ry="3.2" fill="#f1f3f4"/><g transform="translate(254.37 -2.54)" stroke-width=".211" stroke-linecap="square" stroke-linejoin="round" stroke-miterlimit="0"><circle cx="42.359" cy="85.611" r="1.803" fill="#ff6058" stroke="#ff1c10"/><circle cx="55.063" cy="85.611" r="1.803" fill="#27ca40" stroke="#39b741"/><circle cx="48.711" cy="85.611" r="1.803" fill="#ffc130" stroke="#e0ad44"/></g><path d="M503.586 96.187l.45-1.698-1.359-1.111 1.754-.095.637-1.637.632 1.638 1.754.1-1.363 1.108.447 1.699-1.475-.954z" fill="none" stroke="#65696d" stroke-width=".4" stroke-linecap="square" stroke-linejoin="round" stroke-miterlimit="0"/><circle cx="519.134" cy="93.918" r="3.028" fill="url(#prefix__c)" stroke="#0a0a0a" stroke-width=".4" stroke-linecap="square" stroke-linejoin="round" stroke-miterlimit="0"/><g transform="translate(257.656 .292)" fill="#5f6367"><circle cx="272.428" cy="92.162" r=".466"/><circle cx="272.428" cy="95.09" r=".466"/><circle cx="272.428" cy="93.626" r=".466"/></g><path d="M320.185 94.645a1.706 1.706 0 01-1.856.867 1.706 1.706 0 01-1.35-1.54 1.706 1.706 0 011.102-1.727 1.706 1.706 0 011.965.577" fill="none" stroke="#5f6367" stroke-width=".269" stroke-linecap="square" stroke-linejoin="round" stroke-miterlimit="0"/><path d="M319.463 92.955l.837-.689-.04.863z" fill="#5f6367"/><path d="M308.575 92.163l1.859 1.835-1.859 1.764h0m1.718-1.764l-3.577-.024M298.413 92.069l-1.859 1.835 1.859 1.764h0m-1.718-1.764l3.576-.024" stroke="#737373" fill="none" stroke-width=".265"/><g transform="translate(253.464 .392)"><rect width="2.462" height="1.896" x="77.696" y="93.247" ry=".243" fill="#5f6367"/><path d="M78.253 93.4c-.135-1.774 1.436-1.848 1.353-.023z" fill="none" stroke="#5f6367" stroke-width=".265"/></g><g fill="none" stroke="#5f6367" stroke-width=".365"><path d="M355.81 83.853h3.858m-1.912 1.894l-.035-3.788M344.357 82.414l2.672 2.784m-2.69-.068l2.708-2.648"/></g><text style="line-height:1.25;-inkscape-font-specification:'Space Grotesk'" x="316.952" y="86.99" font-size="4.1" font-family="Space Grotesk" letter-spacing="-.143" word-spacing="0" fill="#2f2f2f" stroke-width=".031"><tspan style="-inkscape-font-specification:Sans" x="316.952" y="86.99" font-weight="400" font-family="Sans">New Tab</tspan></text><text style="line-height:1.25;-inkscape-font-specification:'Space Grotesk'" x="335.348" y="95.471" font-size="4.233" font-family="'Space Grotesk'" letter-spacing="-.095" word-spacing="0" stroke-width=".265"><tspan x="335.348" y="95.471" fill="#1d1d1d">theurlist.com</tspan></text></g><rect width="244.3" height="203.646" x="416.327" y="51.194" ry="2.447" fill="#2c3133" stroke="#babcbf" stroke-width=".3" stroke-linecap="square" stroke-linejoin="round" stroke-miterlimit="0"/><rect width="244.3" height="21.456" x="416.327" y="48.559" ry="2.374" fill="#202124"/><rect width="243.868" height="11.346" x="416.654" y="62.554" ry="0" fill="#313538" stroke="#54616e" stroke-width=".33" stroke-linecap="square" stroke-linejoin="round" stroke-miterlimit="0"/><rect width="35.667" height="14.373" x="439.058" y="53.723" ry="3.67" fill="#323639"/><rect width="182.567" height="8.658" x="452.84" y="63.992" ry="3.2" fill="#3b3f42" stroke="#597094" stroke-width=".494" stroke-linecap="square" stroke-linejoin="round" stroke-miterlimit="0"/><g transform="translate(379.343 -28.138)" stroke-width=".211" stroke-linecap="square" stroke-linejoin="round" stroke-miterlimit="0"><circle cx="42.359" cy="85.611" r="1.803" fill="#ff6058" stroke="#ff1c10"/><circle cx="55.063" cy="85.611" r="1.803" fill="#27ca40" stroke="#39b741"/><circle cx="48.711" cy="85.611" r="1.803" fill="#ffc130" stroke="#e0ad44"/></g><path d="M628.559 70.59l.451-1.698-1.36-1.111 1.754-.095.637-1.637.633 1.638 1.753.1-1.363 1.108.447 1.699-1.475-.954z" fill="none" stroke="#65696d" stroke-width=".4" stroke-linecap="square" stroke-linejoin="round" stroke-miterlimit="0"/><circle cx="644.107" cy="68.321" r="3.028" fill="url(#prefix__d)" stroke="#0a0a0a" stroke-width=".4" stroke-linecap="square" stroke-linejoin="round" stroke-miterlimit="0"/><g transform="translate(382.63 -25.305)" fill="#5f6367"><circle cx="272.428" cy="92.162" r=".466"/><circle cx="272.428" cy="95.09" r=".466"/><circle cx="272.428" cy="93.626" r=".466"/></g><g stroke="#babcbf" stroke-width=".4"><path d="M445.158 69.048a1.706 1.706 0 01-1.856.867 1.706 1.706 0 01-1.35-1.54 1.706 1.706 0 011.102-1.727 1.706 1.706 0 011.966.577" fill="none" stroke-linecap="square" stroke-linejoin="round" stroke-miterlimit="0"/><path d="M444.437 67.358l.837-.689-.04.863z" fill="#5f6367"/></g><path d="M433.548 66.566l1.86 1.835-1.86 1.764h0m1.718-1.764l-3.576-.024M423.386 66.472l-1.859 1.835 1.86 1.764h0m-1.718-1.764l3.576-.024" stroke="#babcbf" stroke-width=".4" fill="none"/><rect width="2.462" height="1.896" x="456.133" y="68.041" ry=".243" fill="#ccc"/><path d="M456.69 68.195c-.135-1.775 1.435-1.848 1.353-.023z" fill="none" stroke="#ccc" stroke-width=".265"/><g stroke="#babcbf" fill="none" stroke-width=".365"><path d="M480.783 58.256h3.858m-1.911 1.894l-.036-3.788M469.33 56.817l2.672 2.784m-2.69-.068l2.708-2.648"/></g><text style="line-height:1.25;-inkscape-font-specification:'Space Grotesk'" x="441.925" y="61.393" font-size="4.1" font-family="Space Grotesk" letter-spacing="-.143" word-spacing="0" fill="#eaeced" stroke-width=".031"><tspan style="-inkscape-font-specification:Sans" x="441.925" y="61.393" font-weight="400" font-family="Sans">New Tab</tspan></text><text style="line-height:1.25;-inkscape-font-specification:'Space Grotesk'" x="460.322" y="69.874" font-size="4.233" font-family="'Space Grotesk'" letter-spacing="-.095" word-spacing="0" fill="#ccc" stroke-width=".265"><tspan x="460.322" y="69.874">theurlist.com</tspan></text><g transform="translate(160.357 8.281)"><rect width="244.3" height="203.646" x="291.354" y="76.791" ry="2.447" fill="#fbfcfc"/><rect width="244.3" height="21.456" x="291.354" y="74.156" ry="2.374" fill="#dde1e5"/><rect width="243.868" height="11.346" x="291.68" y="88.151" ry="0" fill="#fbfcfc" stroke="#dde1e5" stroke-width=".33" stroke-linecap="square" stroke-linejoin="round" stroke-miterlimit="0"/><rect width="35.667" height="14.373" x="314.084" y="79.32" ry="3.67" fill="#fbfcfc"/><rect width="182.567" height="8.658" x="327.867" y="89.589" ry="3.2" fill="#f1f3f4"/><g transform="translate(254.37 -2.54)" stroke-width=".211" stroke-linecap="square" stroke-linejoin="round" stroke-miterlimit="0"><circle cx="42.359" cy="85.611" r="1.803" fill="#ff6058" stroke="#ff1c10"/><circle cx="55.063" cy="85.611" r="1.803" fill="#27ca40" stroke="#39b741"/><circle cx="48.711" cy="85.611" r="1.803" fill="#ffc130" stroke="#e0ad44"/></g><path d="M503.586 96.187l.45-1.698-1.359-1.111 1.754-.095.637-1.637.632 1.638 1.754.1-1.363 1.108.447 1.699-1.475-.954z" fill="none" stroke="#65696d" stroke-width=".4" stroke-linecap="square" stroke-linejoin="round" stroke-miterlimit="0"/><circle cx="519.134" cy="93.918" r="3.028" fill="url(#prefix__e)" stroke="#0a0a0a" stroke-width=".4" stroke-linecap="square" stroke-linejoin="round" stroke-miterlimit="0"/><g transform="translate(257.656 .292)" fill="#5f6367"><circle cx="272.428" cy="92.162" r=".466"/><circle cx="272.428" cy="95.09" r=".466"/><circle cx="272.428" cy="93.626" r=".466"/></g><path d="M320.185 94.645a1.706 1.706 0 01-1.856.867 1.706 1.706 0 01-1.35-1.54 1.706 1.706 0 011.102-1.727 1.706 1.706 0 011.965.577" fill="none" stroke="#5f6367" stroke-width=".269" stroke-linecap="square" stroke-linejoin="round" stroke-miterlimit="0"/><path d="M319.463 92.955l.837-.689-.04.863z" fill="#5f6367"/><path d="M308.575 92.163l1.859 1.835-1.859 1.764h0m1.718-1.764l-3.577-.024M298.413 92.069l-1.859 1.835 1.859 1.764h0m-1.718-1.764l3.576-.024" stroke="#737373" fill="none" stroke-width=".265"/><g transform="translate(253.464 .392)"><rect width="2.462" height="1.896" x="77.696" y="93.247" ry=".243" fill="#5f6367"/><path d="M78.253 93.4c-.135-1.774 1.436-1.848 1.353-.023z" fill="none" stroke="#5f6367" stroke-width=".265"/></g><g fill="none" stroke="#5f6367" stroke-width=".365"><path d="M355.81 83.853h3.858m-1.912 1.894l-.035-3.788M344.357 82.414l2.672 2.784m-2.69-.068l2.708-2.648"/></g><text style="line-height:1.25;-inkscape-font-specification:'Space Grotesk'" x="316.952" y="86.99" font-size="4.1" font-family="Space Grotesk" letter-spacing="-.143" word-spacing="0" fill="#2f2f2f" stroke-width=".031"><tspan style="-inkscape-font-specification:Sans" x="316.952" y="86.99" font-weight="400" font-family="Sans">New Tab</tspan></text><text style="line-height:1.25;-inkscape-font-specification:'Space Grotesk'" x="335.348" y="95.471" font-size="4.233" font-family="'Space Grotesk'" letter-spacing="-.095" word-spacing="0" stroke-width=".265"><tspan x="335.348" y="95.471" fill="#1d1d1d">theurlist.com</tspan></text></g></g></svg>