<?xml version="1.0" encoding="UTF-8"?>
<svg width="54px" height="28px" viewBox="0 0 54 28" version="1.1" xmlns="http://www.w3.org/2000/svg" xmlns:xlink="http://www.w3.org/1999/xlink">
    <!-- Generator: Sketch 52.5 (67469) - http://www.bohemiancoding.com/sketch -->
    <title>Logo</title>
    <desc>Created with Sketch.</desc>
    <defs>
        <linearGradient x1="0%" y1="0%" x2="100%" y2="100%" id="linearGradient-1">
            <stop stop-color="#43E695" offset="0%"></stop>
            <stop stop-color="#3BB2B8" offset="100%"></stop>
        </linearGradient>
    </defs>
    <g id="Logo" stroke="none" stroke-width="1" fill="none" fill-rule="evenodd">
        <rect id="Rectangle" fill="url(#linearGradient-1)" x="0" y="0" width="28" height="28" rx="4"></rect>
        <path d="M11.165,19.68 L9.665,19.68 L9.665,18.915 C9.14,19.485 8.405,19.77 7.64,19.77 C6.86,19.77 6.215,19.515 5.765,19.08 C5.18,18.51 5,17.79 5,16.935 L5,12.075 L6.53,12.075 L6.53,16.71 C6.53,17.895 7.205,18.405 8.06,18.405 C8.915,18.405 9.635,17.88 9.635,16.71 L9.635,12.075 L11.165,12.075 L11.165,19.68 Z M18.935,12.705 L17.78,13.86 C17.435,13.515 17.165,13.35 16.64,13.35 C15.815,13.35 15.125,14.01 15.125,15.06 L15.125,19.68 L13.595,19.68 L13.595,12.075 L15.095,12.075 L15.095,12.9 C15.485,12.36 16.265,11.985 17.12,11.985 C17.855,11.985 18.41,12.18 18.935,12.705 Z M23.165,19.68 L22.22,19.68 C20.765,19.68 20.135,18.705 20.135,17.58 L20.135,9 L21.665,9 L21.665,17.49 C21.665,18.075 21.875,18.375 22.49,18.375 L23.165,18.375 L23.165,19.68 Z" id="url" fill="#FFFFFF"></path>
        <path d="M37.7488614,19.9084605 L31,19.9084605 L31,9.04576976 L32.6161353,9.04576976 L32.6161353,18.4285714 L37.7488614,18.4285714 L37.7488614,19.9084605 Z M40.9362394,19.9084605 L39.4098894,19.9084605 L39.4098894,12.1733703 L40.9362394,12.1733703 L40.9362394,19.9084605 Z M40.9811321,10.6477115 L39.3649967,10.6477115 L39.3649967,9 L40.9811321,9 L40.9811321,10.6477115 Z M48.9720234,17.5436893 C48.9720234,19.1608877 47.625244,20 45.8145738,20 C44.5725439,20 43.5250488,19.7864078 42.6271958,18.8862691 L43.6297983,17.8640777 C44.2433312,18.5048544 45.066363,18.6726768 45.8145738,18.6726768 C46.7573195,18.6726768 47.4756018,18.3370319 47.4756018,17.6047157 C47.4756018,17.0707351 47.1912817,16.7656033 46.4580351,16.6893204 L45.2459336,16.5825243 C43.8093689,16.445215 43.0013012,15.8044383 43.0013012,14.4466019 C43.0013012,12.9209431 44.2732596,12.0818308 45.8594665,12.0818308 C47.0117111,12.0818308 47.9694209,12.3259362 48.6727391,12.9514563 L47.7150293,13.9431345 C47.2361744,13.5312067 46.5627846,13.3786408 45.8445023,13.3786408 C44.9167209,13.3786408 44.4677944,13.7753121 44.4677944,14.370319 C44.4677944,14.9042996 44.7670787,15.1789182 45.5152895,15.2552011 L46.5777489,15.3467406 C48.1489915,15.4840499 48.9720234,16.185853 48.9720234,17.5436893 Z M54,19.9084605 L53.0871828,19.9084605 C51.6655823,19.9084605 51.0071568,18.8710125 51.0071568,17.7572816 L51.0071568,13.3633842 L50.1392323,13.3633842 L50.1392323,12.1733703 L51.0071568,12.1733703 L51.0071568,9.96116505 L52.5335068,9.96116505 L52.5335068,12.1733703 L54,12.1733703 L54,13.3633842 L52.5335068,13.3633842 L52.5335068,17.6809986 C52.5335068,18.2454924 52.8028627,18.5811373 53.3715029,18.5811373 L54,18.5811373 L54,19.9084605 Z" id="List" fill="#1F2C46"></path>
    </g>
</svg>