<?xml version="1.0" encoding="UTF-8" standalone="no"?>
<!-- Created with Inkscape (http://www.inkscape.org/) -->

<svg
   width="17.101631mm"
   height="17.101631mm"
   viewBox="0 0 17.101631 17.101631"
   version="1.1"
   id="svg1"
   xml:space="preserve"
   inkscape:version="1.3 (0e150ed6c4, 2023-07-21)"
   sodipodi:docname="no-image.svg"
   xmlns:inkscape="http://www.inkscape.org/namespaces/inkscape"
   xmlns:sodipodi="http://sodipodi.sourceforge.net/DTD/sodipodi-0.dtd"
   xmlns="http://www.w3.org/2000/svg"
   xmlns:svg="http://www.w3.org/2000/svg"><sodipodi:namedview
     id="namedview1"
     pagecolor="#505050"
     bordercolor="#eeeeee"
     borderopacity="1"
     inkscape:showpageshadow="0"
     inkscape:pageopacity="0"
     inkscape:pagecheckerboard="0"
     inkscape:deskcolor="#d1d1d1"
     inkscape:document-units="mm"
     inkscape:zoom="7.9522134"
     inkscape:cx="6.0989309"
     inkscape:cy="39.548737"
     inkscape:window-width="1920"
     inkscape:window-height="1009"
     inkscape:window-x="1912"
     inkscape:window-y="-5"
     inkscape:window-maximized="1"
     inkscape:current-layer="layer1"
     showgrid="false" /><defs
     id="defs1" /><g
     inkscape:label="Layer 1"
     inkscape:groupmode="layer"
     id="layer1"
     transform="translate(-113.25673,-140.37313)"><circle
       style="fill:#d8d8d8;fill-opacity:1;stroke:none;stroke-width:0.315984;stroke-linecap:square;stroke-linejoin:round;stroke-miterlimit:0"
       id="path4"
       cx="121.80754"
       cy="148.92395"
       r="8.5508156" /><path
       style="fill:#000000;fill-opacity:1;stroke:none;stroke-width:0.1;stroke-linecap:butt;stroke-linejoin:miter;stroke-dasharray:none;stroke-opacity:1"
       d="m 121.17063,150.98693 c -0.66496,0.5473 -1.55138,1.70079 -2.47491,1.67238 -0.93742,-0.10912 -1.48338,-1.00916 -0.63333,-1.93607 0.67505,-0.86385 1.34413,-1.56875 2.16997,-2.28958 1.05781,-0.93725 2.30329,0.85046 2.57327,-0.018 0.26998,-0.86846 -1.40475,-1.40222 -2.20924,-1.31656 -0.89942,0.34634 -1.25797,0.69021 -3.1029,2.64174 -0.67766,0.68793 -1.24914,1.7831 -0.75982,2.71536 0.38183,1.14634 1.98111,1.71303 2.99291,0.98184 0.87898,-0.56147 2.00288,-1.60152 2.73068,-2.34517 -0.38873,0.11658 -0.75437,0.10449 -1.28663,-0.10594 z"
       id="path2"
       sodipodi:nodetypes="cccczcccccc" /><path
       style="fill:#000000;fill-opacity:1;stroke:none;stroke-width:0.1;stroke-linecap:butt;stroke-linejoin:miter;stroke-dasharray:none;stroke-opacity:1"
       d="m 121.99649,146.55875 c 0.67439,-0.53564 1.58075,-1.67353 2.50365,-1.62905 0.93538,0.12542 1.46559,1.03483 0.59953,1.9468 -0.68998,0.85197 -1.37123,1.54512 -2.20949,2.25146 -1.07396,0.9187 -2.39853,-0.81804 -2.68359,0.0456 -0.28505,0.86363 1.49053,1.35408 2.29638,1.28244 0.90532,-0.33064 1.2698,-0.66821 3.14842,-2.58733 0.68953,-0.67604 1.27998,-1.76109 0.80697,-2.70173 -0.36182,-1.15281 -1.951,-1.74725 -2.97537,-1.03378 -0.88862,0.54608 -2.03045,1.56641 -2.77109,2.29728 0.3907,-0.1098 0.75608,-0.0913 1.28459,0.12832 z"
       id="path1"
       sodipodi:nodetypes="cccczcccccc" /></g></svg>
